# xmcd
#
# Track frame offsets:
# 183
# 15953
# 28070
# 58763
#
# Disc length: 1162 seconds
#
#
# Revision: 5
# Processed by: cddbd v1.5.2PL0 Copyright (c) Steve Scherf et al.
# Submitted via: FreeRIP 2.95 
#
DISCID=27048804
DTITLE=The Cure - Lovesong
DYEAR=1989
DGENRE=Gothic
TTITLE0=Lovesong (7" Mix)
TTITLE1=2 Late
TTITLE2=Fear Of Ghosts
TTITLE3=Lovesong (Extended Mix)
EXTD=CD Single
EXTT0=
EXTT1=
EXTT2=
EXTT3=
PLAYORDER=
